# Blender 5.1.1
# www.blender.org
mtllib Bullet.mtl
o 9mm_Luger
v 0.001413 0.003915 -0.011717
v 0.001897 0.002400 -0.013941
v 0.001027 0.002982 -0.013941
v 0.000000 0.004196 -0.011717
v 0.000000 0.003186 -0.013941
v 0.000000 0.001217 -0.015737
v 0.000273 0.001163 -0.015737
v 0.000000 0.000503 -0.015860
v 0.001747 0.004721 -0.005809
v 0.003070 0.003573 -0.008915
v 0.001661 0.004514 -0.008915
v 0.000540 0.001806 -0.015368
v 0.000000 0.001914 -0.015368
v 0.004011 0.002165 -0.008915
v 0.002611 0.003115 -0.011717
v 0.000505 0.001008 -0.015737
v 0.003228 0.003731 -0.005809
v 0.000997 0.001501 -0.015368
v 0.002479 0.001530 -0.013941
v 0.001303 0.001043 -0.015368
v 0.003412 0.001916 -0.011717
v 0.002683 0.000503 -0.013941
v 0.004342 0.000503 -0.008915
v 0.003693 0.000503 -0.011717
v 0.000660 0.000776 -0.015737
v 0.004218 0.002250 -0.005809
v 0.003412 -0.000910 -0.011717
v 0.000714 0.000503 -0.015737
v 0.004218 -0.001244 -0.005809
v 0.004565 0.000503 -0.005809
v 0.001411 0.000503 -0.015368
v 0.002479 -0.000524 -0.013941
v 0.001303 -0.000037 -0.015368
v 0.001897 -0.001394 -0.013941
v 0.004011 -0.001158 -0.008915
v 0.002611 -0.002108 -0.011717
v 0.000660 0.000230 -0.015737
v 0.003228 -0.002725 -0.005809
v 0.001661 -0.003508 -0.008915
v 0.003070 -0.002567 -0.008915
v 0.000505 -0.000002 -0.015737
v 0.001747 -0.003714 -0.005809
v 0.001027 -0.001976 -0.013941
v 0.000997 -0.000494 -0.015368
v 0.001413 -0.002909 -0.011717
v 0.000000 -0.000908 -0.015368
v 0.000540 -0.000800 -0.015368
v 0.000000 -0.002180 -0.013941
v 0.000000 -0.003838 -0.008915
v 0.000273 -0.000157 -0.015737
v 0.000000 -0.004062 -0.005809
v -0.001661 -0.003508 -0.008915
v 0.000000 -0.003190 -0.011717
v 0.000000 -0.000211 -0.015737
v -0.001747 -0.003714 -0.005809
v -0.001027 -0.001976 -0.013941
v -0.001413 -0.002909 -0.011717
v -0.003228 -0.002725 -0.005809
v -0.000997 -0.000494 -0.015368
v -0.000540 -0.000800 -0.015368
v -0.001897 -0.001394 -0.013941
v -0.002611 -0.002108 -0.011717
v -0.000273 -0.000157 -0.015737
v -0.003412 -0.000910 -0.011717
v -0.003070 -0.002567 -0.008915
v -0.000505 -0.000002 -0.015737
v -0.004218 -0.001244 -0.005809
v -0.002479 -0.000524 -0.013941
v -0.004565 0.000503 -0.005809
v -0.004011 -0.001158 -0.008915
v -0.001303 -0.000037 -0.015368
v -0.001411 0.000503 -0.015368
v -0.003693 0.000503 -0.011717
v -0.000660 0.000230 -0.015737
v -0.003412 0.001916 -0.011717
v -0.002683 0.000503 -0.013941
v -0.004342 0.000503 -0.008915
v -0.000714 0.000503 -0.015737
v -0.004218 0.002250 -0.005809
v -0.001303 0.001043 -0.015368
v -0.000660 0.000776 -0.015737
v -0.003228 0.003731 -0.005809
v -0.004011 0.002165 -0.008915
v -0.002479 0.001530 -0.013941
v -0.000997 0.001501 -0.015368
v -0.001897 0.002400 -0.013941
v -0.003070 0.003573 -0.008915
v -0.001413 0.003915 -0.011717
v -0.002611 0.003115 -0.011717
v -0.001661 0.004514 -0.008915
v -0.000505 0.001008 -0.015737
v -0.001747 0.004721 -0.005809
v -0.000540 0.001806 -0.015368
v 0.000000 0.004845 -0.008915
v -0.000273 0.001163 -0.015737
v -0.001027 0.002982 -0.013941
v -0.004218 0.002250 -0.001777
v 0.004218 -0.001244 -0.001777
v 0.003228 -0.002725 -0.001777
v -0.003228 0.003731 -0.001777
v 0.001747 -0.003714 -0.001777
v -0.001747 0.004721 -0.001777
v 0.000000 0.005068 -0.005809
v 0.000000 0.005068 -0.001777
v -0.001747 -0.003714 -0.001777
v 0.001747 0.004721 -0.001777
v 0.004565 0.000503 -0.001777
v -0.003228 -0.002725 -0.001777
v 0.003228 0.003731 -0.001777
v 0.004218 0.002250 -0.001777
v -0.004218 -0.001244 -0.001777
v -0.004565 0.000503 -0.001777
v 0.000000 -0.004062 -0.001777
v 0.000000 0.000503 -0.001777
v 0.000000 0.005183 0.013261
v 0.001906 0.005104 0.012961
v 0.000000 0.005483 0.012961
v 0.003309 0.003812 0.013261
v 0.001791 0.004827 0.013261
v 0.004324 0.002294 0.013261
v 0.003521 0.004025 0.012961
v 0.004980 0.000503 0.012961
v 0.004601 0.002409 0.012961
v 0.004324 -0.001288 0.013261
v 0.004680 0.000503 0.013261
v 0.003521 -0.003018 0.012961
v 0.004601 -0.001403 0.012961
v 0.003309 -0.002806 0.013261
v 0.001906 -0.004098 0.012961
v 0.001791 -0.003821 0.013261
v 0.000000 -0.004477 0.012961
v 0.000000 -0.004177 0.013261
v -0.001906 -0.004098 0.012961
v -0.003309 -0.002806 0.013261
v -0.001791 -0.003821 0.013261
v -0.004324 -0.001288 0.013261
v -0.003521 -0.003018 0.012961
v -0.004980 0.000503 0.012961
v -0.004601 -0.001403 0.012961
v -0.004324 0.002294 0.013261
v -0.004680 0.000503 0.013261
v -0.003309 0.003812 0.013261
v -0.004601 0.002409 0.012961
v -0.001906 0.005104 0.012961
v -0.003521 0.004025 0.012961
v -0.001791 0.004827 0.013261
v 0.000000 0.005483 0.011991
v 0.001906 0.005104 0.011991
v 0.003521 0.004025 0.011991
v 0.004601 0.002409 0.011991
v 0.004980 0.000503 0.011991
v 0.004601 -0.001403 0.011991
v 0.003521 -0.003018 0.011991
v 0.001906 -0.004098 0.011991
v 0.000000 -0.004477 0.011991
v -0.001906 -0.004098 0.011991
v -0.003521 -0.003018 0.011991
v -0.004601 -0.001403 0.011991
v -0.004980 0.000503 0.011991
v -0.004601 0.002409 0.011991
v -0.003521 0.004025 0.011991
v -0.001906 0.005104 0.011991
v 0.000000 0.004898 0.011991
v 0.003108 0.003611 0.011991
v 0.001682 0.004564 0.011991
v 0.004060 0.002185 0.011991
v 0.004060 -0.001179 0.011991
v 0.004395 0.000503 0.011991
v 0.003108 -0.002605 0.011991
v 0.000000 -0.003892 0.011991
v 0.001682 -0.003557 0.011991
v -0.003108 -0.002605 0.011991
v -0.001682 -0.003557 0.011991
v -0.004060 -0.001179 0.011991
v -0.004395 0.000503 0.011991
v -0.004060 0.002185 0.011991
v -0.003108 0.003611 0.011991
v -0.001682 0.004564 0.011991
v 0.000000 0.004898 0.011091
v 0.001682 0.004564 0.011091
v 0.003108 0.003611 0.011091
v 0.004060 0.002185 0.011091
v 0.004395 0.000503 0.011091
v 0.004060 -0.001179 0.011091
v 0.003108 -0.002605 0.011091
v 0.001682 -0.003557 0.011091
v 0.000000 -0.003892 0.011091
v -0.001682 -0.003557 0.011091
v -0.003108 -0.002605 0.011091
v -0.004060 -0.001179 0.011091
v -0.004395 0.000503 0.011091
v -0.004060 0.002185 0.011091
v -0.003108 0.003611 0.011091
v -0.001682 0.004564 0.011091
v 0.000000 0.005468 0.010281
v 0.001900 0.005090 0.010281
v 0.003511 0.004014 0.010281
v 0.004965 0.000503 0.010281
v 0.004587 0.002403 0.010281
v 0.003511 -0.003008 0.010281
v 0.004587 -0.001397 0.010281
v 0.001900 -0.004084 0.010281
v 0.000000 -0.004462 0.010281
v -0.001900 -0.004084 0.010281
v -0.003511 -0.003008 0.010281
v -0.004587 -0.001397 0.010281
v -0.004965 0.000503 0.010281
v -0.004587 0.002403 0.010281
v -0.003511 0.004014 0.010281
v -0.001900 0.005090 0.010281
v 0.000000 0.005328 -0.005889
v 0.001846 0.004961 -0.005889
v 0.003412 0.003915 -0.005889
v 0.004458 0.002350 -0.005889
v 0.004825 0.000503 -0.005889
v 0.004458 -0.001343 -0.005889
v 0.003412 -0.002909 -0.005889
v 0.001846 -0.003955 -0.005889
v 0.000000 -0.004322 -0.005889
v -0.001846 -0.003955 -0.005889
v -0.003412 -0.002909 -0.005889
v -0.004825 0.000503 -0.005889
v -0.004458 -0.001343 -0.005889
v -0.004458 0.002350 -0.005889
v -0.003412 0.003915 -0.005889
v -0.001846 0.004961 -0.005889
v 0.000000 0.005018 -0.005889
v 0.003193 0.003696 -0.005889
v 0.001728 0.004674 -0.005889
v 0.004171 0.002231 -0.005889
v 0.004515 0.000503 -0.005889
v 0.004171 -0.001225 -0.005889
v 0.003193 -0.002689 -0.005889
v 0.000000 -0.004012 -0.005889
v 0.001728 -0.003668 -0.005889
v -0.001728 -0.003668 -0.005889
v -0.004171 -0.001225 -0.005889
v -0.003193 -0.002689 -0.005889
v -0.004515 0.000503 -0.005889
v -0.003193 0.003696 -0.005889
v -0.004171 0.002231 -0.005889
v -0.001728 0.004674 -0.005889
v 0.000000 0.005018 0.009229
v 0.001728 0.004674 0.009229
v 0.003193 0.003696 0.009229
v 0.004171 0.002231 0.009229
v 0.004515 0.000503 0.009229
v 0.004171 -0.001225 0.009229
v 0.003193 -0.002689 0.009229
v 0.001728 -0.003668 0.009229
v 0.000000 -0.004012 0.009229
v -0.001728 -0.003668 0.009229
v -0.003193 -0.002689 0.009229
v -0.004171 -0.001225 0.009229
v -0.004515 0.000503 0.009229
v -0.004171 0.002231 0.009229
v -0.003193 0.003696 0.009229
v -0.001728 0.004674 0.009229
v 0.000000 0.000503 0.009229
v 0.000000 0.002833 0.013261
v 0.000892 0.002656 0.013261
v 0.001647 0.002151 0.013261
v 0.002152 0.001395 0.013261
v 0.002330 0.000503 0.013261
v 0.002152 -0.000388 0.013261
v 0.001647 -0.001144 0.013261
v 0.000892 -0.001649 0.013261
v 0.000000 -0.001827 0.013261
v -0.000892 -0.001649 0.013261
v -0.001647 -0.001144 0.013261
v -0.002152 -0.000388 0.013261
v -0.002330 0.000503 0.013261
v -0.002152 0.001395 0.013261
v -0.001647 0.002151 0.013261
v -0.000892 0.002656 0.013261
v 0.000000 0.002648 0.012882
v -0.000821 0.002485 0.012882
v -0.001517 0.002020 0.012882
v -0.001982 0.001324 0.012882
v -0.002145 0.000503 0.012882
v -0.001982 -0.000318 0.012882
v -0.001517 -0.001014 0.012882
v -0.000821 -0.001479 0.012882
v 0.000000 -0.001642 0.012882
v 0.000821 -0.001479 0.012882
v 0.001517 -0.001014 0.012882
v 0.001982 -0.000318 0.012882
v 0.002145 0.000503 0.012882
v 0.001982 0.001324 0.012882
v 0.001517 0.002020 0.012882
v 0.000821 0.002485 0.012882
v 0.000000 0.000503 0.013261
v 0.000649 0.002070 0.013261
v 0.000000 0.002199 0.013261
v 0.001199 0.001702 0.013261
v 0.001567 0.001152 0.013261
v 0.001696 0.000503 0.013261
v 0.001567 -0.000146 0.013261
v 0.001199 -0.000696 0.013261
v 0.000649 -0.001064 0.013261
v 0.000000 -0.001193 0.013261
v -0.000649 -0.001064 0.013261
v -0.001199 -0.000696 0.013261
v -0.001567 -0.000146 0.013261
v -0.001696 0.000503 0.013261
v -0.001567 0.001152 0.013261
v -0.001199 0.001702 0.013261
v -0.000649 0.002070 0.013261
vn 0.3628 0.8761 -0.3174
vn 0.5964 0.5964 -0.5373
vn 0.3229 0.7791 -0.5373
vn -0.0000 0.9483 -0.3174
vn -0.0000 0.8434 -0.5374
vn -0.0000 0.3404 -0.9403
vn 0.1300 0.3147 -0.9402
vn -0.0000 -0.0000 -1.0000
vn 0.3824 0.9233 -0.0358
vn 0.6993 0.6994 -0.1477
vn 0.3785 0.9137 -0.1477
vn 0.2413 0.5823 -0.7764
vn -0.0000 0.6298 -0.7768
vn 0.9137 0.3787 -0.1477
vn 0.6704 0.6706 -0.3175
vn 0.2407 0.2407 -0.9403
vn 0.7067 0.7066 -0.0358
vn 0.4455 0.4459 -0.7763
vn 0.7791 0.3229 -0.5373
vn 0.5822 0.2414 -0.7764
vn 0.8761 0.3629 -0.3174
vn 0.8434 -0.0000 -0.5373
vn 0.9891 0.0001 -0.1472
vn 0.9483 -0.0000 -0.3175
vn 0.3147 0.1301 -0.9402
vn 0.9233 0.3824 -0.0357
vn 0.8761 -0.3630 -0.3174
vn 0.3405 -0.0001 -0.9402
vn 0.9233 -0.3825 -0.0358
vn 0.9994 -0.0000 -0.0357
vn 0.6303 0.0001 -0.7764
vn 0.7791 -0.3229 -0.5373
vn 0.5821 -0.2412 -0.7765
vn 0.5964 -0.5964 -0.5373
vn 0.9137 -0.3786 -0.1478
vn 0.6706 -0.6706 -0.3174
vn 0.3145 -0.1302 -0.9403
vn 0.7065 -0.7068 -0.0358
vn 0.3783 -0.9138 -0.1477
vn 0.6993 -0.6993 -0.1478
vn 0.2408 -0.2408 -0.9402
vn 0.3825 -0.9233 -0.0357
vn 0.3229 -0.7791 -0.5373
vn 0.4457 -0.4457 -0.7763
vn 0.3630 -0.8761 -0.3173
vn -0.0000 -0.6301 -0.7765
vn 0.2413 -0.5821 -0.7765
vn -0.0000 -0.8434 -0.5372
vn -0.0000 -0.9890 -0.1476
vn 0.1301 -0.3147 -0.9402
vn -0.0000 -0.9994 -0.0358
vn -0.3783 -0.9138 -0.1476
vn -0.0000 -0.9483 -0.3173
vn -0.0000 -0.3404 -0.9403
vn -0.3824 -0.9233 -0.0358
vn -0.3229 -0.7791 -0.5373
vn -0.3630 -0.8761 -0.3173
vn -0.7065 -0.7068 -0.0357
vn -0.4457 -0.4457 -0.7763
vn -0.2417 -0.5820 -0.7764
vn -0.5964 -0.5964 -0.5373
vn -0.6705 -0.6706 -0.3174
vn -0.1301 -0.3147 -0.9402
vn -0.8761 -0.3630 -0.3174
vn -0.6993 -0.6994 -0.1478
vn -0.2408 -0.2408 -0.9402
vn -0.9233 -0.3825 -0.0354
vn -0.7791 -0.3229 -0.5373
vn -0.9994 -0.0000 -0.0357
vn -0.9138 -0.3785 -0.1477
vn -0.5821 -0.2411 -0.7766
vn -0.6300 -0.0000 -0.7766
vn -0.9483 -0.0000 -0.3174
vn -0.3145 -0.1302 -0.9403
vn -0.8761 0.3629 -0.3174
vn -0.8434 0.0001 -0.5373
vn -0.9890 -0.0001 -0.1477
vn -0.3406 -0.0002 -0.9402
vn -0.9233 0.3824 -0.0357
vn -0.5822 0.2414 -0.7764
vn -0.3147 0.1301 -0.9402
vn -0.7067 0.7067 -0.0358
vn -0.9137 0.3787 -0.1477
vn -0.7791 0.3229 -0.5373
vn -0.4455 0.4459 -0.7763
vn -0.5964 0.5964 -0.5373
vn -0.6993 0.6994 -0.1477
vn -0.3628 0.8761 -0.3174
vn -0.6704 0.6706 -0.3174
vn -0.3785 0.9137 -0.1477
vn -0.2407 0.2407 -0.9403
vn -0.3824 0.9233 -0.0358
vn -0.2413 0.5823 -0.7764
vn -0.0000 0.9890 -0.1477
vn -0.1301 0.3147 -0.9402
vn -0.3229 0.7791 -0.5373
vn -0.9239 0.3826 -0.0000
vn 0.9239 -0.3826 -0.0000
vn 0.7069 -0.7073 -0.0000
vn -0.7071 0.7071 -0.0000
vn 0.3827 -0.9239 -0.0000
vn -0.3827 0.9239 -0.0000
vn -0.0000 0.9994 -0.0357
vn -0.0000 1.0000 -0.0000
vn -0.3827 -0.9239 -0.0000
vn 0.3826 0.9239 -0.0000
vn 1.0000 -0.0000 -0.0000
vn -0.7069 -0.7073 -0.0000
vn 0.7071 0.7071 -0.0000
vn 0.9239 0.3827 -0.0000
vn -0.9239 -0.3827 -0.0000
vn -1.0000 -0.0000 -0.0000
vn -0.0000 -1.0000 -0.0000
vn -0.0000 -0.0000 1.0000
vn -0.0000 0.7071 0.7071
vn 0.2707 0.6533 0.7071
vn 0.5000 0.5000 0.7071
vn 0.2706 0.6534 0.7070
vn 0.6533 0.2706 0.7071
vn 0.4999 0.5000 0.7072
vn 0.7071 -0.0000 0.7071
vn 0.6533 0.2707 0.7070
vn 0.6533 -0.2707 0.7070
vn 0.5002 -0.5001 0.7069
vn 0.6533 -0.2708 0.7070
vn 0.2708 -0.6533 0.7070
vn 0.2707 -0.6533 0.7070
vn -0.0000 -0.7071 0.7071
vn -0.2707 -0.6533 0.7070
vn -0.5002 -0.5001 0.7069
vn -0.2706 -0.6534 0.7070
vn -0.6533 -0.2707 0.7070
vn -0.7071 -0.0000 0.7071
vn -0.6533 -0.2708 0.7070
vn -0.6533 0.2707 0.7070
vn -0.4999 0.4999 0.7072
vn -0.6533 0.2707 0.7071
vn -0.2707 0.6533 0.7071
vn -0.5000 0.5000 0.7071
vn -0.2707 0.6533 0.7070
vn 0.7071 0.7072 -0.0000
vn 0.9238 -0.3828 -0.0000
vn 0.7071 -0.7071 -0.0000
vn 0.3828 -0.9238 -0.0000
vn -0.3828 -0.9238 -0.0000
vn -0.7071 -0.7071 -0.0000
vn -0.9238 -0.3828 -0.0000
vn -0.9240 -0.3825 -0.0000
vn -0.9239 0.3827 -0.0000
vn -0.7071 0.7072 -0.0000
vn -0.3826 0.9239 -0.0000
vn 0.7073 0.7069 -0.0000
vn 0.9239 0.3826 -0.0000
vn 0.3826 -0.9239 -0.0000
vn -0.3826 -0.9239 -0.0000
vn -0.9239 -0.3826 -0.0000
vn -0.7073 0.7069 -0.0000
vn -0.3830 0.9237 -0.0000
vn 0.3131 0.7558 0.5751
vn -0.0000 0.8179 0.5753
vn -0.0000 0.8178 0.5755
vn 0.5784 0.5782 0.5754
vn 0.7555 0.3129 0.5756
vn 0.5783 0.5782 0.5755
vn 0.8177 -0.0000 0.5756
vn 0.7556 0.3131 0.5753
vn 0.7555 -0.3129 0.5756
vn 0.8178 -0.0000 0.5755
vn 0.5783 -0.5782 0.5755
vn 0.7555 -0.3128 0.5757
vn 0.3131 -0.7556 0.5753
vn 0.3128 -0.7555 0.5757
vn -0.0000 -0.8177 0.5756
vn -0.3128 -0.7555 0.5757
vn -0.0000 -0.8178 0.5755
vn -0.5783 -0.5782 0.5755
vn -0.3131 -0.7556 0.5753
vn -0.7554 -0.3129 0.5757
vn -0.8178 0.0001 0.5755
vn -0.7555 -0.3129 0.5757
vn -0.7555 0.3128 0.5757
vn -0.8178 -0.0000 0.5755
vn -0.5784 0.5782 0.5755
vn -0.3130 0.7555 0.5756
vn -0.5784 0.5783 0.5754
vn 0.3826 0.9239 -0.0087
vn -0.0000 1.0000 -0.0087
vn -0.0000 1.0000 -0.0086
vn 0.7071 0.7071 -0.0087
vn 0.3825 0.9239 -0.0086
vn 0.9239 0.3826 -0.0086
vn 0.7070 0.7072 -0.0086
vn 1.0000 -0.0000 -0.0086
vn 0.9239 -0.3826 -0.0087
vn 1.0000 -0.0001 -0.0087
vn 0.7071 -0.7071 -0.0087
vn 0.9239 -0.3825 -0.0086
vn 0.3826 -0.9239 -0.0086
vn -0.0000 -1.0000 -0.0087
vn 0.3825 -0.9239 -0.0087
vn -0.3826 -0.9239 -0.0087
vn -0.7071 -0.7071 -0.0087
vn -0.3825 -0.9239 -0.0086
vn -0.9239 -0.3826 -0.0087
vn -1.0000 -0.0000 -0.0086
vn -0.9239 -0.3825 -0.0086
vn -0.9239 0.3826 -0.0086
vn -1.0000 -0.0000 -0.0087
vn -0.7071 0.7071 -0.0086
vn -0.3826 0.9239 -0.0086
vn -0.7070 0.7072 -0.0087
vn -0.3825 0.9239 -0.0087
vn -0.9237 -0.3830 -0.0000
vn -0.7072 0.7071 -0.0000
vn -0.3828 0.9238 -0.0000
vn 0.3828 0.9238 -0.0000
vn 0.7072 0.7071 -0.0000
vn -0.0000 -0.8986 0.4387
vn 0.3438 -0.8302 0.4388
vn 0.3436 -0.8302 0.4390
vn 0.6355 -0.6355 0.4385
vn 0.6355 -0.6355 0.4384
vn 0.8304 -0.3439 0.4383
vn 0.8304 -0.3440 0.4383
vn 0.8987 -0.0000 0.4385
vn 0.8988 -0.0003 0.4384
vn 0.8303 0.3439 0.4385
vn 0.6355 0.6355 0.4384
vn 0.6355 0.6355 0.4385
vn 0.3439 0.8303 0.4385
vn -0.0000 0.8986 0.4387
vn -0.0000 0.8988 0.4383
vn -0.3439 0.8303 0.4385
vn -0.6355 0.6355 0.4385
vn -0.6355 0.6355 0.4384
vn -0.8304 0.3439 0.4384
vn -0.8304 0.3440 0.4384
vn -0.8988 -0.0003 0.4384
vn -0.8304 -0.3440 0.4383
vn -0.8304 -0.3439 0.4383
vn -0.6356 -0.6355 0.4383
vn -0.6357 -0.6355 0.4382
vn -0.3438 -0.8302 0.4388
vn -0.3436 -0.8302 0.4390
vn 0.2465 0.5951 0.7649
vn -0.0000 0.6440 0.7650
vn 0.2464 0.5950 0.7650
vn 0.4554 0.4554 0.7650
vn 0.5952 0.2465 0.7649
vn 0.5952 0.2465 0.7648
vn 0.6441 -0.0000 0.7649
vn 0.5952 -0.2465 0.7649
vn 0.4555 -0.4555 0.7649
vn 0.4555 -0.4556 0.7648
vn 0.2465 -0.5951 0.7649
vn 0.2464 -0.5950 0.7650
vn -0.0000 -0.6440 0.7650
vn -0.2464 -0.5951 0.7650
vn -0.2465 -0.5951 0.7649
vn -0.4554 -0.4554 0.7650
vn -0.5951 -0.2464 0.7650
vn -0.4555 -0.4555 0.7649
vn -0.6440 -0.0000 0.7651
vn -0.6440 -0.0000 0.7650
vn -0.5949 0.2464 0.7651
vn -0.4553 0.4553 0.7651
vn -0.5951 0.2464 0.7650
vn -0.2465 0.5951 0.7649
vn 0.4553 0.4553 0.7651
vn -0.5952 -0.2465 0.7649
vt 0.606624 0.694152
vt 0.579288 0.649394
vt 0.599292 0.647648
vt 0.634879 0.688989
vt 0.619276 0.641476
vt 0.590502 0.593719
vt 0.585481 0.596584
vt 0.580126 0.582612
vt 0.613651 0.811452
vt 0.578194 0.750811
vt 0.611352 0.749938
vt 0.590362 0.611555
vt 0.600522 0.606901
vt 0.545004 0.749296
vt 0.578898 0.695704
vt 0.579929 0.597499
vt 0.578024 0.811816
vt 0.579704 0.612950
vt 0.559352 0.646909
vt 0.569122 0.611210
vt 0.551087 0.693431
vt 0.539542 0.640004
vt 0.511277 0.745667
vt 0.522288 0.687409
vt 0.574412 0.596433
vt 0.542278 0.811157
vt 0.491038 0.746090
vt 0.451752 0.693892
vt 0.480105 0.688313
vt 0.569486 0.593448
vt 0.460390 0.811021
vt 0.496251 0.809328
vt 0.443982 0.606287
vt 0.443578 0.647313
vt 0.433969 0.611248
vt 0.463905 0.640518
vt 0.423582 0.649446
vt 0.457338 0.749580
vt 0.423922 0.695699
vt 0.433687 0.593505
vt 0.428786 0.596432
vt 0.423208 0.582612
vt 0.424782 0.811802
vt 0.391180 0.749657
vt 0.424294 0.750769
vt 0.423262 0.597442
vt 0.389018 0.811553
vt 0.403579 0.647371
vt 0.423319 0.612923
vt 0.396045 0.693879
vt 0.402587 0.606628
vt 0.412693 0.611358
vt 0.383665 0.641145
vt 0.357222 0.746248
vt 0.417730 0.596483
vt 0.352535 0.810361
vt 0.767463 0.179127
vt 0.790426 0.118368
vt 0.800905 0.175750
vt 0.412751 0.593570
vt 0.769781 0.240775
vt 0.755196 0.077439
vt 0.756365 0.037414
vt 0.774901 0.071356
vt 0.762412 0.123579
vt 0.734040 0.241197
vt 0.735978 0.043454
vt 0.746425 0.041994
vt 0.735422 0.079356
vt 0.734720 0.125074
vt 0.746495 0.024580
vt 0.741604 0.027392
vt 0.736353 0.013791
vt 0.707157 0.122717
vt 0.734337 0.179978
vt 0.736184 0.028288
vt 0.698112 0.240526
vt 0.715728 0.076789
vt 0.661431 0.238855
vt 0.701160 0.178414
vt 0.725599 0.041669
vt 0.715885 0.036747
vt 0.678986 0.116522
vt 0.730795 0.027254
vt 0.762415 0.440896
vt 0.775124 0.388235
vt 0.790653 0.435755
vt 0.800809 0.493540
vt 0.726032 0.024357
vt 0.769354 0.558087
vt 0.805246 0.556837
vt 0.746245 0.358282
vt 0.756433 0.353606
vt 0.746345 0.340353
vt 0.741304 0.343245
vt 0.735872 0.329220
vt 0.733709 0.558420
vt 0.767100 0.496579
vt 0.755126 0.394378
vt 0.735573 0.359743
vt 0.735033 0.396217
vt 0.733998 0.497300
vt 0.706903 0.440091
vt 0.734705 0.442245
vt 0.700928 0.495798
vt 0.735726 0.344184
vt 0.697917 0.557727
vt 0.724929 0.357997
vt 0.666867 0.491888
vt 0.730178 0.343144
vt 0.695616 0.387135
vt 0.714905 0.353115
vt 0.678704 0.433993
vt 0.715083 0.393759
vt 0.645091 0.746870
vt 0.725212 0.340154
vt 0.769760 0.640079
vt 0.461807 0.892936
vt 0.425184 0.893380
vt 0.733104 0.640079
vt 0.388550 0.893380
vt 0.696436 0.639636
vt 0.661378 0.556076
vt 0.650714 0.892958
vt 0.649534 0.810192
vt 0.770395 0.323318
vt 0.614087 0.893355
vt 0.498435 0.892095
vt 0.733495 0.323318
vt 0.577469 0.893355
vt 0.540859 0.892910
vt 0.505896 0.809561
vt 0.696621 0.322858
vt 0.806421 0.639685
vt 0.807379 0.322889
vt 0.806097 0.239354
vt 0.838653 0.753183
vt 0.825040 0.786047
vt 0.749236 0.735397
vt 0.799887 0.811201
vt 0.767023 0.824814
vt 0.731451 0.824814
vt 0.698587 0.811201
vt 0.673433 0.786048
vt 0.659820 0.753184
vt 0.659820 0.717612
vt 0.673433 0.684747
vt 0.698586 0.659594
vt 0.731450 0.645981
vt 0.767022 0.645981
vt 0.799887 0.659594
vt 0.825040 0.684747
vt 0.838653 0.717611
vt 0.559261 0.606338
vt 0.368136 0.688498
vt 0.667026 0.174463
vt 0.696211 0.069870
vt 0.351978 0.893134
vt 0.659820 0.638948
vt 0.504337 0.892221
vt 0.659820 0.322146
vt 0.970022 0.311769
vt 0.961455 0.348639
vt 0.961455 0.311769
vt 0.970022 0.385510
vt 0.970022 0.348639
vt 0.970022 0.422380
vt 0.961455 0.385510
vt 0.961455 0.459250
vt 0.961455 0.422380
vt 0.970022 0.496121
vt 0.970022 0.459250
vt 0.961455 0.532991
vt 0.961455 0.496121
vt 0.970022 0.532991
vt 0.961455 0.569862
vt 0.970022 0.569862
vt 0.961455 0.606732
vt 0.970022 0.016806
vt 0.961455 0.053676
vt 0.961455 0.016806
vt 0.970022 0.090547
vt 0.970022 0.053676
vt 0.970022 0.127417
vt 0.961455 0.090547
vt 0.961455 0.164287
vt 0.961455 0.127417
vt 0.970022 0.201158
vt 0.970022 0.164287
vt 0.970022 0.238028
vt 0.961455 0.201158
vt 0.961455 0.274898
vt 0.961455 0.238028
vt 0.970022 0.274898
vt 0.870133 0.288447
vt 0.889505 0.327253
vt 0.870133 0.327253
vt 0.870133 0.249641
vt 0.889504 0.288447
vt 0.870133 0.210835
vt 0.889504 0.249641
vt 0.870133 0.172029
vt 0.889504 0.210835
vt 0.870133 0.133223
vt 0.889504 0.172029
vt 0.870133 0.094417
vt 0.889504 0.133223
vt 0.870133 0.055612
vt 0.889505 0.094418
vt 0.870133 0.016806
vt 0.889505 0.055612
vt 0.870133 0.598894
vt 0.889505 0.637700
vt 0.870133 0.637700
vt 0.870133 0.560088
vt 0.889505 0.598894
vt 0.870133 0.521282
vt 0.889505 0.560088
vt 0.870133 0.482476
vt 0.889505 0.521282
vt 0.870133 0.443670
vt 0.889505 0.482476
vt 0.870133 0.404865
vt 0.889505 0.443670
vt 0.870133 0.366059
vt 0.889505 0.404865
vt 0.889505 0.366059
vt 0.955554 0.352373
vt 0.944328 0.315088
vt 0.955554 0.315088
vt 0.944328 0.389659
vt 0.944328 0.352373
vt 0.955554 0.389659
vt 0.944328 0.426944
vt 0.955554 0.464230
vt 0.955554 0.426944
vt 0.944328 0.501515
vt 0.944328 0.464230
vt 0.955554 0.538800
vt 0.955554 0.501515
vt 0.955554 0.576085
vt 0.944328 0.538800
vt 0.944328 0.613371
vt 0.944328 0.576085
vt 0.955554 0.054091
vt 0.944328 0.016806
vt 0.955554 0.016806
vt 0.944328 0.091376
vt 0.944328 0.054091
vt 0.955554 0.091376
vt 0.944328 0.128662
vt 0.955554 0.128662
vt 0.944328 0.165947
vt 0.955554 0.165947
vt 0.944328 0.203232
vt 0.955554 0.203232
vt 0.944328 0.240518
vt 0.955554 0.240518
vt 0.944328 0.277803
vt 0.955554 0.277803
vt 0.938426 0.325032
vt 0.920452 0.290784
vt 0.938426 0.290785
vt 0.938426 0.359279
vt 0.920452 0.325032
vt 0.938426 0.393526
vt 0.920452 0.359279
vt 0.938426 0.427773
vt 0.920452 0.393526
vt 0.938426 0.462021
vt 0.920452 0.427773
vt 0.938426 0.496269
vt 0.920452 0.462021
vt 0.938426 0.530516
vt 0.920452 0.496268
vt 0.938426 0.564763
vt 0.920452 0.530516
vt 0.938426 0.051053
vt 0.920452 0.016806
vt 0.938426 0.016806
vt 0.938426 0.085301
vt 0.920452 0.051053
vt 0.938426 0.119548
vt 0.920452 0.085301
vt 0.938426 0.153795
vt 0.920452 0.119548
vt 0.938426 0.188042
vt 0.920452 0.153795
vt 0.938426 0.222290
vt 0.920452 0.188043
vt 0.938426 0.256537
vt 0.920452 0.222290
vt 0.920452 0.256537
vt 0.914550 0.353795
vt 0.895407 0.316352
vt 0.914550 0.316352
vt 0.914550 0.391239
vt 0.895407 0.353795
vt 0.914550 0.428682
vt 0.895407 0.391239
vt 0.895407 0.466125
vt 0.895407 0.428682
vt 0.914550 0.503569
vt 0.914550 0.466125
vt 0.895407 0.541012
vt 0.895407 0.503569
vt 0.914550 0.541012
vt 0.895407 0.578455
vt 0.914550 0.578455
vt 0.895407 0.615898
vt 0.914550 0.054249
vt 0.895407 0.016806
vt 0.914550 0.016806
vt 0.914550 0.091692
vt 0.895407 0.054249
vt 0.914550 0.129136
vt 0.895407 0.091692
vt 0.914550 0.166579
vt 0.895407 0.129136
vt 0.914550 0.204022
vt 0.895407 0.166579
vt 0.914550 0.241465
vt 0.895407 0.204022
vt 0.914550 0.278909
vt 0.895407 0.241465
vt 0.895407 0.278909
vt 0.019134 0.284576
vt 0.342013 0.323265
vt 0.019069 0.323265
vt 0.019330 0.245887
vt 0.342077 0.285666
vt 0.019657 0.207200
vt 0.342267 0.248069
vt 0.020114 0.168514
vt 0.342585 0.210471
vt 0.020702 0.129829
vt 0.343029 0.172876
vt 0.021421 0.091147
vt 0.343600 0.135282
vt 0.022270 0.052467
vt 0.344299 0.097690
vt 0.023250 0.013791
vt 0.345124 0.060101
vt 0.022270 0.594062
vt 0.346076 0.624015
vt 0.023249 0.632739
vt 0.021420 0.555382
vt 0.345124 0.586428
vt 0.020702 0.516700
vt 0.344299 0.548839
vt 0.343029 0.473654
vt 0.343600 0.511247
vt 0.019657 0.439329
vt 0.020114 0.478016
vt 0.019330 0.400642
vt 0.342585 0.436058
vt 0.019134 0.361953
vt 0.342267 0.398461
vt 0.342077 0.360863
vt 0.864231 0.518496
vt 0.857995 0.483061
vt 0.864231 0.483061
vt 0.857995 0.553931
vt 0.857995 0.518496
vt 0.864231 0.553931
vt 0.857995 0.589366
vt 0.864231 0.589366
vt 0.857995 0.624801
vt 0.864231 0.660236
vt 0.864231 0.624801
vt 0.864231 0.695671
vt 0.857995 0.660236
vt 0.864231 0.731106
vt 0.857995 0.695671
vt 0.857995 0.766541
vt 0.857995 0.731106
vt 0.864231 0.235016
vt 0.857995 0.199582
vt 0.864231 0.199582
vt 0.864231 0.270451
vt 0.857995 0.235016
vt 0.857995 0.305886
vt 0.857995 0.270451
vt 0.864231 0.341321
vt 0.864231 0.305886
vt 0.864231 0.376756
vt 0.857995 0.341321
vt 0.857995 0.412191
vt 0.857995 0.376756
vt 0.864231 0.412191
vt 0.857995 0.447626
vt 0.864231 0.447626
vt 0.653918 0.330433
vt 0.351978 0.295250
vt 0.653918 0.295251
vt 0.653918 0.365615
vt 0.351978 0.330433
vt 0.653918 0.400798
vt 0.351978 0.365615
vt 0.653918 0.435980
vt 0.351978 0.400798
vt 0.653918 0.471163
vt 0.351978 0.435980
vt 0.653918 0.506345
vt 0.351978 0.471163
vt 0.653918 0.541527
vt 0.351978 0.506345
vt 0.653919 0.576710
vt 0.351978 0.541528
vt 0.653918 0.048973
vt 0.351978 0.013791
vt 0.653919 0.013791
vt 0.653918 0.084156
vt 0.351978 0.048973
vt 0.653918 0.119338
vt 0.351978 0.084156
vt 0.653918 0.154521
vt 0.351978 0.119338
vt 0.653918 0.189703
vt 0.351978 0.154520
vt 0.653918 0.224886
vt 0.351978 0.189703
vt 0.653918 0.260068
vt 0.351978 0.224885
vt 0.351978 0.260068
vt 0.326406 0.867690
vt 0.326406 0.902872
vt 0.237969 0.885281
vt 0.312942 0.935376
vt 0.288064 0.960254
vt 0.255560 0.973718
vt 0.220378 0.973718
vt 0.187873 0.960254
vt 0.162996 0.935377
vt 0.149532 0.902872
vt 0.149532 0.867690
vt 0.162996 0.835185
vt 0.187873 0.810308
vt 0.220378 0.796844
vt 0.255560 0.796844
vt 0.288065 0.810308
vt 0.312942 0.835186
vt 0.092504 0.821978
vt 0.084888 0.768996
vt 0.101661 0.775943
vt 0.119815 0.775943
vt 0.162664 0.808022
vt 0.136587 0.768996
vt 0.188451 0.782235
vt 0.149425 0.756159
vt 0.202407 0.748543
vt 0.156372 0.739386
vt 0.202407 0.712075
vt 0.156372 0.721232
vt 0.188451 0.678383
vt 0.149424 0.704460
vt 0.162664 0.652596
vt 0.136587 0.691622
vt 0.128972 0.638640
vt 0.119815 0.684675
vt 0.101661 0.684675
vt 0.058811 0.652596
vt 0.084888 0.691623
vt 0.072051 0.704460
vt 0.019069 0.712075
vt 0.065104 0.721232
vt 0.065104 0.739387
vt 0.072051 0.756159
vt 0.019069 0.748544
vt 0.033025 0.782236
vt 0.831595 0.155860
vt 0.839816 0.173619
vt 0.831595 0.173619
vt 0.831595 0.191377
vt 0.839816 0.191377
vt 0.831595 0.209136
vt 0.839816 0.209136
vt 0.831595 0.226895
vt 0.839816 0.226895
vt 0.831595 0.244653
vt 0.839816 0.244653
vt 0.831595 0.262412
vt 0.839816 0.262412
vt 0.831595 0.280171
vt 0.839816 0.297929
vt 0.831595 0.297929
vt 0.839816 0.013791
vt 0.831595 0.031549
vt 0.831595 0.013791
vt 0.839816 0.049308
vt 0.831595 0.049308
vt 0.839816 0.067067
vt 0.831595 0.067067
vt 0.839816 0.084825
vt 0.831595 0.084825
vt 0.839816 0.102584
vt 0.831595 0.102584
vt 0.839816 0.120343
vt 0.831595 0.120343
vt 0.839816 0.138101
vt 0.831595 0.138101
vt 0.970022 0.606732
vt 0.889505 0.016806
vt 0.955554 0.613371
vt 0.920452 0.564763
vt 0.914550 0.615898
vt 0.346076 0.022515
vt 0.864231 0.766541
vt 0.351978 0.576710
vt 0.058812 0.808022
vt 0.128972 0.821978
vt 0.092504 0.638640
vt 0.033025 0.678383
vt 0.839816 0.155860
vt 0.839816 0.280171
vt 0.839816 0.031549
vt 0.241527 0.671859
vt 0.260344 0.700020
vt 0.248134 0.705077
vt 0.269688 0.690676
vt 0.274746 0.678467
vt 0.274746 0.665251
vt 0.269688 0.653042
vt 0.260344 0.643698
vt 0.248135 0.638640
vt 0.234920 0.638640
vt 0.222710 0.643697
vt 0.213366 0.653042
vt 0.208309 0.665251
vt 0.208308 0.678466
vt 0.213365 0.690676
vt 0.222710 0.700020
vt 0.234919 0.705077
vt 0.813281 0.139649
vt 0.825693 0.125665
vt 0.825693 0.139649
vt 0.825693 0.153634
vt 0.813281 0.167618
vt 0.825693 0.167618
vt 0.813281 0.181602
vt 0.825693 0.181602
vt 0.813281 0.195587
vt 0.825693 0.195587
vt 0.813281 0.209571
vt 0.825693 0.209571
vt 0.813281 0.223555
vt 0.825693 0.223555
vt 0.825693 0.237540
vt 0.813281 0.027775
vt 0.825693 0.013791
vt 0.825693 0.027775
vt 0.825693 0.041759
vt 0.825693 0.055744
vt 0.813281 0.041759
vt 0.813281 0.069728
vt 0.825693 0.069728
vt 0.825693 0.083712
vt 0.825693 0.097697
vt 0.813281 0.083712
vt 0.813281 0.111681
vt 0.825693 0.111681
vt 0.813281 0.125665
vt 0.813281 0.153634
vt 0.813281 0.237540
vt 0.813281 0.013791
vt 0.813281 0.055744
vt 0.813281 0.097697
s 1
usemtl Material.001
f 1/1/1 2/2/2 3/3/3
f 4/4/4 3/3/3 5/5/5
f 6/6/6 7/7/7 8/8/8
f 9/9/9 10/10/10 11/11/11
f 12/12/12 6/6/6 13/13/13
f 2/2/2 12/12/12 3/3/3
f 14/14/14 15/15/15 10/10/10
f 7/7/7 16/16/16 8/8/8
f 17/17/17 14/14/14 10/10/10
f 18/18/18 7/7/7 12/12/12
f 18/18/18 19/19/19 20/20/20
f 21/21/21 2/2/2 15/15/15
f 22/22/22 20/20/20 19/19/19
f 21/21/21 22/22/22 19/19/19
f 21/21/21 23/23/23 24/24/24
f 16/16/16 25/25/25 8/8/8
f 26/26/26 23/23/23 14/14/14
f 18/18/18 25/25/25 16/16/16
f 23/27/23 27/28/27 24/29/24
f 25/25/25 28/30/28 8/8/8
f 29/31/29 23/27/23 30/32/30
f 20/20/20 28/30/28 25/25/25
f 31/33/31 32/34/32 33/35/33
f 27/28/27 22/36/22 24/29/24
f 34/37/34 33/35/33 32/34/32
f 27/28/27 34/37/34 32/34/32
f 35/38/35 36/39/36 27/28/27
f 28/40/28 37/41/37 8/42/8
f 38/43/38 35/38/35 29/31/29
f 31/33/31 37/41/37 28/40/28
f 39/44/39 36/39/36 40/45/40
f 37/41/37 41/46/41 8/42/8
f 42/47/42 40/45/40 38/43/38
f 33/35/33 41/46/41 37/41/37
f 43/48/43 44/49/44 34/37/34
f 45/50/45 34/37/34 36/39/36
f 43/48/43 46/51/46 47/52/47
f 45/50/45 48/53/48 43/48/43
f 49/54/49 45/50/45 39/44/39
f 41/46/41 50/55/50 8/42/8
f 51/56/51 39/44/39 42/47/42
f 47/52/47 41/46/41 44/49/44
f 52/57/52 53/58/53 49/59/49
f 50/55/50 54/60/54 8/42/8
f 49/59/49 55/61/55 52/57/52
f 47/52/47 54/60/54 50/55/50
f 56/62/56 46/63/46 48/64/48
f 57/65/57 48/64/48 53/58/53
f 58/66/58 52/57/52 55/61/55
f 56/62/56 59/67/59 60/68/60
f 57/65/57 61/69/61 56/62/56
f 52/57/52 62/70/62 57/65/57
f 54/71/54 63/72/63 8/73/8
f 60/68/60 54/71/54 46/63/46
f 64/74/64 61/69/61 62/70/62
f 65/75/65 64/74/64 62/70/62
f 63/72/63 66/76/66 8/73/8
f 67/77/67 65/75/65 58/66/58
f 60/68/60 66/76/66 63/72/63
f 68/78/68 59/67/59 61/69/61
f 69/79/69 70/80/70 67/77/67
f 71/81/71 66/76/66 59/67/59
f 68/78/68 72/82/72 71/81/71
f 73/83/73 68/78/68 64/74/64
f 70/80/70 73/83/73 64/74/64
f 66/76/66 74/84/74 8/73/8
f 75/85/75 76/86/76 73/87/73
f 77/88/77 75/85/75 73/87/73
f 74/84/74 78/89/78 8/73/8
f 79/90/79 77/88/77 69/91/69
f 72/82/72 74/84/74 71/81/71
f 76/86/76 80/92/80 72/93/72
f 78/94/78 81/95/81 8/96/8
f 82/97/82 83/98/83 79/90/79
f 80/92/80 78/94/78 72/93/72
f 84/99/84 85/100/85 80/92/80
f 75/85/75 86/101/86 84/99/84
f 87/102/87 75/85/75 83/98/83
f 88/103/88 86/101/86 89/104/89
f 89/104/89 90/105/90 88/103/88
f 81/95/81 91/106/91 8/96/8
f 92/107/92 87/102/87 82/97/82
f 85/100/85 81/95/81 80/92/80
f 86/101/86 93/108/93 85/100/85
f 94/109/94 88/103/88 90/105/90
f 91/106/91 95/110/95 8/96/8
f 92/107/92 94/109/94 90/105/90
f 93/108/93 91/106/91 85/100/85
f 93/108/93 5/111/5 13/112/13
f 4/113/4 96/114/96 88/103/88
f 5/5/5 12/12/12 13/13/13
f 94/115/94 1/1/1 4/4/4
f 95/110/95 6/116/6 8/96/8
f 11/11/11 15/15/15 1/1/1
f 93/108/93 6/116/6 95/110/95
f 97/117/97 82/97/82 79/90/79
f 98/118/98 38/43/38 29/31/29
f 99/119/99 42/47/42 38/43/38
f 100/120/100 92/107/92 82/97/82
f 101/121/101 51/56/51 42/47/42
f 102/122/102 103/123/103 92/107/92
f 104/124/104 9/9/9 103/125/103
f 105/126/105 58/66/58 55/61/55
f 106/127/106 17/17/17 9/9/9
f 107/128/107 29/31/29 30/32/30
f 108/129/108 67/77/67 58/66/58
f 109/130/109 26/26/26 17/17/17
f 110/131/110 30/132/30 26/26/26
f 111/133/111 69/79/69 67/77/67
f 112/134/112 79/90/79 69/91/69
f 113/135/113 55/61/55 51/136/51
f 9/9/9 94/115/94 103/125/103
f 106/137/114 104/138/114 114/139/114
f 104/138/114 102/140/114 114/139/114
f 102/140/114 100/141/114 114/139/114
f 100/141/114 97/142/114 114/139/114
f 97/142/114 112/143/114 114/139/114
f 112/143/114 111/144/114 114/139/114
f 111/144/114 108/145/114 114/139/114
f 108/145/114 105/146/114 114/139/114
f 105/146/114 113/147/114 114/139/114
f 113/147/114 101/148/114 114/139/114
f 101/148/114 99/149/114 114/139/114
f 99/149/114 98/150/114 114/139/114
f 98/150/114 107/151/114 114/139/114
f 107/151/114 110/152/114 114/139/114
f 110/152/114 109/153/114 114/139/114
f 109/153/114 106/137/114 114/139/114
f 1/1/1 15/15/15 2/2/2
f 4/4/4 1/1/1 3/3/3
f 9/9/9 17/17/17 10/10/10
f 12/12/12 7/7/7 6/6/6
f 2/2/2 18/18/18 12/12/12
f 14/14/14 21/21/21 15/15/15
f 17/17/17 26/26/26 14/14/14
f 18/18/18 16/16/16 7/7/7
f 18/18/18 2/2/2 19/19/19
f 21/21/21 19/19/19 2/2/2
f 22/22/22 31/154/31 20/20/20
f 21/21/21 24/24/24 22/22/22
f 21/21/21 14/14/14 23/23/23
f 26/26/26 30/132/30 23/23/23
f 18/18/18 20/20/20 25/25/25
f 23/27/23 35/38/35 27/28/27
f 29/31/29 35/38/35 23/27/23
f 20/20/20 31/154/31 28/30/28
f 31/33/31 22/36/22 32/34/32
f 27/28/27 32/34/32 22/36/22
f 34/37/34 44/49/44 33/35/33
f 27/28/27 36/39/36 34/37/34
f 35/38/35 40/45/40 36/39/36
f 38/43/38 40/45/40 35/38/35
f 31/33/31 33/35/33 37/41/37
f 39/44/39 45/50/45 36/39/36
f 42/47/42 39/44/39 40/45/40
f 33/35/33 44/49/44 41/46/41
f 43/48/43 47/52/47 44/49/44
f 45/50/45 43/48/43 34/37/34
f 43/48/43 48/53/48 46/51/46
f 45/50/45 53/155/53 48/53/48
f 49/54/49 53/155/53 45/50/45
f 51/56/51 49/54/49 39/44/39
f 47/52/47 50/55/50 41/46/41
f 52/57/52 57/65/57 53/58/53
f 49/59/49 51/136/51 55/61/55
f 47/52/47 46/51/46 54/60/54
f 56/62/56 60/68/60 46/63/46
f 57/65/57 56/62/56 48/64/48
f 58/66/58 65/75/65 52/57/52
f 56/62/56 61/69/61 59/67/59
f 57/65/57 62/70/62 61/69/61
f 52/57/52 65/75/65 62/70/62
f 60/68/60 63/72/63 54/71/54
f 64/74/64 68/78/68 61/69/61
f 65/75/65 70/80/70 64/74/64
f 67/77/67 70/80/70 65/75/65
f 60/68/60 59/67/59 66/76/66
f 68/78/68 71/81/71 59/67/59
f 69/79/69 77/156/77 70/80/70
f 71/81/71 74/84/74 66/76/66
f 68/78/68 76/157/76 72/82/72
f 73/83/73 76/157/76 68/78/68
f 70/80/70 77/156/77 73/83/73
f 75/85/75 84/99/84 76/86/76
f 77/88/77 83/98/83 75/85/75
f 79/90/79 83/98/83 77/88/77
f 72/82/72 78/89/78 74/84/74
f 76/86/76 84/99/84 80/92/80
f 82/97/82 87/102/87 83/98/83
f 80/92/80 81/95/81 78/94/78
f 84/99/84 86/101/86 85/100/85
f 75/85/75 89/104/89 86/101/86
f 87/102/87 89/104/89 75/85/75
f 88/103/88 96/114/96 86/101/86
f 89/104/89 87/102/87 90/105/90
f 92/107/92 90/105/90 87/102/87
f 85/100/85 91/106/91 81/95/81
f 86/101/86 96/114/96 93/108/93
f 94/109/94 4/113/4 88/103/88
f 92/107/92 103/123/103 94/109/94
f 93/108/93 95/110/95 91/106/91
f 93/108/93 96/114/96 5/111/5
f 4/113/4 5/111/5 96/114/96
f 5/5/5 3/3/3 12/12/12
f 94/115/94 11/11/11 1/1/1
f 11/11/11 10/10/10 15/15/15
f 93/108/93 13/112/13 6/116/6
f 97/117/97 100/120/100 82/97/82
f 98/118/98 99/119/99 38/43/38
f 99/119/99 101/121/101 42/47/42
f 100/120/100 102/122/102 92/107/92
f 101/121/101 113/158/113 51/56/51
f 102/122/102 104/159/104 103/123/103
f 104/124/104 106/127/106 9/9/9
f 105/126/105 108/129/108 58/66/58
f 106/127/106 109/130/109 17/17/17
f 107/128/107 98/118/98 29/31/29
f 108/129/108 111/133/111 67/77/67
f 109/130/109 110/131/110 26/26/26
f 110/131/110 107/160/107 30/132/30
f 111/133/111 112/161/112 69/79/69
f 112/134/112 97/117/97 79/90/79
f 113/135/113 105/126/105 55/61/55
f 9/9/9 11/11/11 94/115/94
f 115/162/115 116/163/116 117/164/115
f 118/165/117 116/163/116 119/166/118
f 120/167/119 121/168/120 118/165/117
f 120/167/119 122/169/121 123/170/122
f 124/171/123 122/169/121 125/172/121
f 124/171/123 126/173/124 127/174/125
f 128/175/124 129/176/126 126/173/124
f 130/177/127 131/178/128 129/176/126
f 132/179/128 133/180/129 131/181/128
f 134/182/130 133/180/129 135/183/131
f 136/184/132 137/185/130 134/182/130
f 136/184/132 138/186/133 139/187/134
f 140/188/135 138/186/133 141/189/133
f 142/190/136 143/191/137 140/188/135
f 142/190/136 144/192/138 145/193/139
f 146/194/140 117/164/115 144/192/138
f 116/195/106 147/196/104 117/197/104
f 121/198/141 148/199/106 116/195/106
f 123/200/110 149/201/141 121/198/141
f 122/202/107 150/203/110 123/200/110
f 127/204/142 151/205/107 122/202/107
f 126/206/143 152/207/142 127/204/142
f 129/208/144 153/209/143 126/206/143
f 131/210/113 154/211/144 129/208/144
f 133/212/145 155/213/113 131/214/113
f 137/215/146 156/216/145 133/212/145
f 139/217/147 157/218/146 137/215/146
f 138/219/112 158/220/148 139/217/147
f 143/221/149 159/222/112 138/219/112
f 145/223/150 160/224/149 143/221/149
f 144/225/151 161/226/150 145/223/150
f 117/197/104 162/227/151 144/225/151
f 148/228/8 163/229/8 147/230/8
f 148/228/8 164/231/8 165/232/8
f 149/233/8 166/234/8 164/231/8
f 151/235/8 166/234/8 150/236/8
f 151/235/8 167/237/8 168/238/8
f 153/239/8 167/237/8 152/240/8
f 154/241/8 169/242/8 153/239/8
f 154/241/8 170/243/8 171/244/8
f 156/245/8 170/246/8 155/247/8
f 156/245/8 172/248/8 173/249/8
f 157/250/8 174/251/8 172/248/8
f 158/252/8 175/253/8 174/251/8
f 159/254/8 176/255/8 175/253/8
f 160/256/8 177/257/8 176/255/8
f 161/258/8 178/259/8 177/257/8
f 162/260/8 163/229/8 178/259/8
f 165/261/106 179/262/104 163/263/104
f 164/264/152 180/265/106 165/261/106
f 166/266/153 181/267/152 164/264/152
f 168/268/107 182/269/153 166/266/153
f 167/270/98 183/271/107 168/268/107
f 169/272/143 184/273/98 167/270/98
f 171/274/154 185/275/143 169/272/143
f 170/276/113 186/277/154 171/274/154
f 173/278/155 187/279/113 170/280/113
f 172/281/146 188/282/155 173/278/155
f 174/283/156 189/284/146 172/281/146
f 175/285/112 190/286/156 174/283/156
f 176/287/97 191/288/112 175/285/112
f 177/289/157 192/290/97 176/287/97
f 178/291/158 193/292/157 177/289/157
f 163/263/104 194/293/158 178/291/158
f 180/294/159 195/295/160 179/296/161
f 181/297/162 196/298/159 180/294/159
f 182/299/163 197/300/164 181/297/162
f 182/299/163 198/301/165 199/302/166
f 184/303/167 198/301/165 183/304/168
f 184/303/167 200/305/169 201/306/170
f 185/307/169 202/308/171 200/305/169
f 186/309/172 203/310/173 202/308/171
f 188/311/174 203/312/173 187/313/175
f 189/314/176 204/315/177 188/311/174
f 190/316/178 205/317/176 189/314/176
f 191/318/179 206/319/180 190/316/178
f 192/320/181 207/321/182 191/318/179
f 193/322/183 208/323/181 192/320/181
f 194/324/184 209/325/185 193/322/183
f 194/324/184 195/295/160 210/326/184
f 196/327/186 211/328/187 195/329/188
f 197/330/189 212/331/190 196/327/186
f 199/332/191 213/333/192 197/330/189
f 198/334/193 214/335/191 199/332/191
f 201/336/194 215/337/195 198/334/193
f 200/338/196 216/339/197 201/336/194
f 202/340/198 217/341/196 200/338/196
f 203/342/199 218/343/200 202/340/198
f 204/344/201 219/345/199 203/346/199
f 205/347/202 220/348/203 204/344/201
f 206/349/204 221/350/202 205/347/202
f 206/349/204 222/351/205 223/352/206
f 208/353/207 222/351/205 207/354/208
f 209/355/209 224/356/207 208/353/207
f 210/357/210 225/358/211 209/355/209
f 195/329/188 226/359/212 210/357/210
f 212/360/8 227/361/8 211/362/8
f 212/360/8 228/363/8 229/364/8
f 213/365/8 230/366/8 228/363/8
f 214/367/8 231/368/8 230/366/8
f 216/369/8 231/368/8 215/370/8
f 217/371/8 232/372/8 216/369/8
f 218/373/8 233/374/8 217/371/8
f 218/373/8 234/375/8 235/376/8
f 220/377/8 234/378/8 219/379/8
f 221/380/8 236/381/8 220/377/8
f 221/380/8 237/382/8 238/383/8
f 222/384/8 237/382/8 223/385/8
f 224/386/8 239/387/8 222/384/8
f 224/386/8 240/388/8 241/389/8
f 225/390/8 242/391/8 240/388/8
f 226/392/8 227/361/8 242/391/8
f 229/393/155 243/394/113 227/395/113
f 228/396/146 244/397/155 229/393/155
f 230/398/213 245/399/146 228/396/146
f 231/400/112 246/401/156 230/398/213
f 232/402/149 247/403/112 231/400/112
f 233/404/214 248/405/149 232/402/149
f 235/406/215 249/407/214 233/404/214
f 234/408/104 250/409/215 235/406/215
f 236/410/216 251/411/104 234/412/104
f 238/413/217 252/414/216 236/410/216
f 237/415/110 253/416/217 238/413/217
f 239/417/107 254/418/110 237/415/110
f 241/419/98 255/420/107 239/417/107
f 240/421/143 256/422/98 241/419/98
f 242/423/154 257/424/143 240/421/143
f 227/395/113 258/425/154 242/423/154
f 243/426/8 244/427/8 259/428/8
f 244/427/8 245/429/8 259/428/8
f 245/429/8 246/430/8 259/428/8
f 246/430/8 247/431/8 259/428/8
f 247/431/8 248/432/8 259/428/8
f 248/432/8 249/433/8 259/428/8
f 249/433/8 250/434/8 259/428/8
f 250/434/8 251/435/8 259/428/8
f 251/435/8 252/436/8 259/428/8
f 252/436/8 253/437/8 259/428/8
f 253/437/8 254/438/8 259/428/8
f 254/438/8 255/439/8 259/428/8
f 255/439/8 256/440/8 259/428/8
f 256/440/8 257/441/8 259/428/8
f 257/441/8 258/442/8 259/428/8
f 258/442/8 243/426/8 259/428/8
f 119/443/114 260/444/114 261/445/114
f 262/446/114 119/443/114 261/445/114
f 120/447/114 262/446/114 263/448/114
f 125/449/114 263/448/114 264/450/114
f 124/451/114 264/450/114 265/452/114
f 128/453/114 265/452/114 266/454/114
f 130/455/114 266/454/114 267/456/114
f 132/457/114 267/456/114 268/458/114
f 135/459/114 268/458/114 269/460/114
f 270/461/114 135/459/114 269/460/114
f 136/462/114 270/461/114 271/463/114
f 272/464/114 136/462/114 271/463/114
f 140/465/114 272/464/114 273/466/114
f 274/467/114 140/465/114 273/466/114
f 275/468/114 142/469/114 274/467/114
f 260/444/114 146/470/114 275/468/114
f 276/471/218 275/472/219 277/473/220
f 275/472/219 278/474/221 277/473/220
f 274/475/222 279/476/223 278/474/221
f 273/477/224 280/478/225 279/476/223
f 272/479/226 281/480/227 280/478/225
f 271/481/227 282/482/228 281/480/227
f 270/483/229 283/484/230 282/482/228
f 283/484/230 268/485/231 284/486/232
f 268/487/231 285/488/233 284/489/232
f 285/488/233 266/490/234 286/491/235
f 286/491/235 265/492/236 287/493/237
f 287/493/237 264/494/238 288/495/238
f 288/495/238 263/496/239 289/497/240
f 289/497/240 262/498/241 290/499/242
f 290/499/242 261/500/243 291/501/244
f 261/500/243 276/471/218 291/501/244
f 115/162/115 119/166/118 116/163/116
f 118/165/117 121/168/120 116/163/116
f 120/167/119 123/170/122 121/168/120
f 120/167/119 125/172/121 122/169/121
f 124/171/123 127/174/125 122/169/121
f 124/171/123 128/175/124 126/173/124
f 128/175/124 130/177/127 129/176/126
f 130/177/127 132/502/128 131/178/128
f 132/179/128 135/183/131 133/180/129
f 134/182/130 137/185/130 133/180/129
f 136/184/132 139/187/134 137/185/130
f 136/184/132 141/189/133 138/186/133
f 140/188/135 143/191/137 138/186/133
f 142/190/136 145/193/139 143/191/137
f 142/190/136 146/194/140 144/192/138
f 146/194/140 115/162/115 117/164/115
f 116/195/106 148/199/106 147/196/104
f 121/198/141 149/201/141 148/199/106
f 123/200/110 150/203/110 149/201/141
f 122/202/107 151/205/107 150/203/110
f 127/204/142 152/207/142 151/205/107
f 126/206/143 153/209/143 152/207/142
f 129/208/144 154/211/144 153/209/143
f 131/210/113 155/503/113 154/211/144
f 133/212/145 156/216/145 155/213/113
f 137/215/146 157/218/146 156/216/145
f 139/217/147 158/220/148 157/218/146
f 138/219/112 159/222/112 158/220/148
f 143/221/149 160/224/149 159/222/112
f 145/223/150 161/226/150 160/224/149
f 144/225/151 162/227/151 161/226/150
f 117/197/104 147/196/104 162/227/151
f 148/228/8 165/232/8 163/229/8
f 148/228/8 149/233/8 164/231/8
f 149/233/8 150/236/8 166/234/8
f 151/235/8 168/238/8 166/234/8
f 151/235/8 152/240/8 167/237/8
f 153/239/8 169/242/8 167/237/8
f 154/241/8 171/244/8 169/242/8
f 154/241/8 155/504/8 170/243/8
f 156/245/8 173/249/8 170/246/8
f 156/245/8 157/250/8 172/248/8
f 157/250/8 158/252/8 174/251/8
f 158/252/8 159/254/8 175/253/8
f 159/254/8 160/256/8 176/255/8
f 160/256/8 161/258/8 177/257/8
f 161/258/8 162/260/8 178/259/8
f 162/260/8 147/230/8 163/229/8
f 165/261/106 180/265/106 179/262/104
f 164/264/152 181/267/152 180/265/106
f 166/266/153 182/269/153 181/267/152
f 168/268/107 183/271/107 182/269/153
f 167/270/98 184/273/98 183/271/107
f 169/272/143 185/275/143 184/273/98
f 171/274/154 186/277/154 185/275/143
f 170/276/113 187/505/113 186/277/154
f 173/278/155 188/282/155 187/279/113
f 172/281/146 189/284/146 188/282/155
f 174/283/156 190/286/156 189/284/146
f 175/285/112 191/288/112 190/286/156
f 176/287/97 192/290/97 191/288/112
f 177/289/157 193/292/157 192/290/97
f 178/291/158 194/293/158 193/292/157
f 163/263/104 179/262/104 194/293/158
f 180/294/159 196/298/159 195/295/160
f 181/297/162 197/300/164 196/298/159
f 182/299/163 199/302/166 197/300/164
f 182/299/163 183/304/168 198/301/165
f 184/303/167 201/306/170 198/301/165
f 184/303/167 185/307/169 200/305/169
f 185/307/169 186/309/172 202/308/171
f 186/309/172 187/506/175 203/310/173
f 188/311/174 204/315/177 203/312/173
f 189/314/176 205/317/176 204/315/177
f 190/316/178 206/319/180 205/317/176
f 191/318/179 207/321/182 206/319/180
f 192/320/181 208/323/181 207/321/182
f 193/322/183 209/325/185 208/323/181
f 194/324/184 210/326/184 209/325/185
f 194/324/184 179/296/161 195/295/160
f 196/327/186 212/331/190 211/328/187
f 197/330/189 213/333/192 212/331/190
f 199/332/191 214/335/191 213/333/192
f 198/334/193 215/337/195 214/335/191
f 201/336/194 216/339/197 215/337/195
f 200/338/196 217/341/196 216/339/197
f 202/340/198 218/343/200 217/341/196
f 203/342/199 219/507/199 218/343/200
f 204/344/201 220/348/203 219/345/199
f 205/347/202 221/350/202 220/348/203
f 206/349/204 223/352/206 221/350/202
f 206/349/204 207/354/208 222/351/205
f 208/353/207 224/356/207 222/351/205
f 209/355/209 225/358/211 224/356/207
f 210/357/210 226/359/212 225/358/211
f 195/329/188 211/328/187 226/359/212
f 212/360/8 229/364/8 227/361/8
f 212/360/8 213/365/8 228/363/8
f 213/365/8 214/367/8 230/366/8
f 214/367/8 215/370/8 231/368/8
f 216/369/8 232/372/8 231/368/8
f 217/371/8 233/374/8 232/372/8
f 218/373/8 235/376/8 233/374/8
f 218/373/8 219/508/8 234/375/8
f 220/377/8 236/381/8 234/378/8
f 221/380/8 238/383/8 236/381/8
f 221/380/8 223/385/8 237/382/8
f 222/384/8 239/387/8 237/382/8
f 224/386/8 241/389/8 239/387/8
f 224/386/8 225/390/8 240/388/8
f 225/390/8 226/392/8 242/391/8
f 226/392/8 211/362/8 227/361/8
f 229/393/155 244/397/155 243/394/113
f 228/396/146 245/399/146 244/397/155
f 230/398/213 246/401/156 245/399/146
f 231/400/112 247/403/112 246/401/156
f 232/402/149 248/405/149 247/403/112
f 233/404/214 249/407/214 248/405/149
f 235/406/215 250/409/215 249/407/214
f 234/408/104 251/509/104 250/409/215
f 236/410/216 252/414/216 251/411/104
f 238/413/217 253/416/217 252/414/216
f 237/415/110 254/418/110 253/416/217
f 239/417/107 255/420/107 254/418/110
f 241/419/98 256/422/98 255/420/107
f 240/421/143 257/424/143 256/422/98
f 242/423/154 258/425/154 257/424/143
f 227/395/113 243/394/113 258/425/154
f 119/443/114 115/510/114 260/444/114
f 262/446/114 118/511/114 119/443/114
f 120/447/114 118/511/114 262/446/114
f 125/449/114 120/447/114 263/448/114
f 124/451/114 125/449/114 264/450/114
f 128/453/114 124/451/114 265/452/114
f 130/455/114 128/453/114 266/454/114
f 132/457/114 130/455/114 267/456/114
f 135/459/114 132/457/114 268/458/114
f 270/461/114 134/512/114 135/459/114
f 136/462/114 134/512/114 270/461/114
f 272/464/114 141/513/114 136/462/114
f 140/465/114 141/513/114 272/464/114
f 274/467/114 142/469/114 140/465/114
f 275/468/114 146/470/114 142/469/114
f 260/444/114 115/510/114 146/470/114
f 276/471/218 260/514/218 275/472/219
f 275/472/219 274/475/222 278/474/221
f 274/475/222 273/477/224 279/476/223
f 273/477/224 272/479/226 280/478/225
f 272/479/226 271/481/227 281/480/227
f 271/481/227 270/483/229 282/482/228
f 270/483/229 269/515/230 283/484/230
f 283/484/230 269/515/230 268/485/231
f 268/487/231 267/516/233 285/488/233
f 285/488/233 267/516/233 266/490/234
f 286/491/235 266/490/234 265/492/236
f 287/493/237 265/492/236 264/494/238
f 288/495/238 264/494/238 263/496/239
f 289/497/240 263/496/239 262/498/241
f 290/499/242 262/498/241 261/500/243
f 261/500/243 260/514/218 276/471/218
f 292/517/114 293/518/114 294/519/114
f 292/517/114 295/520/114 293/518/114
f 292/517/114 296/521/114 295/520/114
f 292/517/114 297/522/114 296/521/114
f 292/517/114 298/523/114 297/522/114
f 292/517/114 299/524/114 298/523/114
f 292/517/114 300/525/114 299/524/114
f 292/517/114 301/526/114 300/525/114
f 292/517/114 302/527/114 301/526/114
f 292/517/114 303/528/114 302/527/114
f 292/517/114 304/529/114 303/528/114
f 292/517/114 305/530/114 304/529/114
f 292/517/114 306/531/114 305/530/114
f 292/517/114 307/532/114 306/531/114
f 292/517/114 308/533/114 307/532/114
f 292/517/114 294/519/114 308/533/114
f 291/534/245 294/535/246 293/536/247
f 295/537/248 291/534/245 293/536/247
f 289/538/249 295/537/248 296/539/250
f 288/540/251 296/539/250 297/541/251
f 287/542/252 297/541/251 298/543/252
f 286/544/253 298/543/252 299/545/254
f 285/546/255 299/545/254 300/547/256
f 301/548/257 285/546/255 300/547/256
f 283/549/258 301/550/257 302/551/259
f 303/552/260 283/549/258 302/551/259
f 304/553/261 282/554/262 303/552/260
f 280/555/263 304/553/261 305/556/264
f 306/557/265 280/555/263 305/556/264
f 307/558/266 279/559/267 306/557/265
f 277/560/268 307/558/266 308/561/268
f 294/535/246 277/560/268 308/561/268
f 291/534/245 276/562/246 294/535/246
f 295/537/248 290/563/269 291/534/245
f 289/538/249 290/563/269 295/537/248
f 288/540/251 289/538/249 296/539/250
f 287/542/252 288/540/251 297/541/251
f 286/544/253 287/542/252 298/543/252
f 285/546/255 286/544/253 299/545/254
f 301/548/257 284/564/257 285/546/255
f 283/549/258 284/565/257 301/550/257
f 303/552/260 282/554/262 283/549/258
f 304/553/261 281/566/270 282/554/262
f 280/555/263 281/566/270 304/553/261
f 306/557/265 279/559/267 280/555/263
f 307/558/266 278/567/266 279/559/267
f 277/560/268 278/567/266 307/558/266
f 294/535/246 276/562/246 277/560/268
